HIERARCHY
ROOT Hips
{
	OFFSET -3.958830 18.904000 13.208200
	CHANNELS 6 Xposition Yposition Zposition Zrotation Yrotation Xrotation 
	JOINT LHipJoint
	{
		OFFSET 0.000000 0.000000 0.000000
		CHANNELS 3 Zrotation Yrotation Xrotation
		JOINT LeftUpLeg
		{
			OFFSET 1.800000 -1.400000 0.085000
			CHANNELS 3 Zrotation Yrotation Xrotation
			JOINT LeftLeg
			{
				OFFSET 2.215000 -6.000000 0.000000
				CHANNELS 3 Zrotation Yrotation Xrotation
				JOINT LeftFoot
				{
					OFFSET 2.500000 -6.900000 0.000000
					CHANNELS 3 Zrotation Yrotation Xrotation
					JOINT LeftToeBase
					{
						OFFSET 0.200000 -0.500000 1.950000
						CHANNELS 3 Zrotation Yrotation Xrotation
						End Site
						{
							OFFSET 0.000000 0.000000 0.000000
						}
					}
				}
			}
		}
	}
	JOINT RHipJoint
	{
		OFFSET 0.000000 0.000000 0.000000
		CHANNELS 3 Zrotation Yrotation Xrotation
		JOINT RightUpLeg
		{
			OFFSET -1.800000 -1.400000 0.085000
			CHANNELS 3 Zrotation Yrotation Xrotation
			JOINT RightLeg
			{
				OFFSET -2.215000 -6.000000 0.000000
				CHANNELS 3 Zrotation Yrotation Xrotation
				JOINT RightFoot
				{
					OFFSET -2.500000 -6.900000 0.000000
					CHANNELS 3 Zrotation Yrotation Xrotation
					JOINT RightToeBase
					{
						OFFSET -0.200000 -0.500000 1.950000
						CHANNELS 3 Zrotation Yrotation Xrotation
						End Site
						{
							OFFSET 0.000000 0.000000 0.000000
						}
					}
				}
			}
		}
	}
	JOINT LowerBack
	{
		OFFSET 0.000000 0.000000 0.000000
		CHANNELS 3 Zrotation Yrotation Xrotation
		JOINT Spine
		{
			OFFSET -0.087000 1.940000 -0.288900
			CHANNELS 3 Zrotation Yrotation Xrotation
			JOINT Spine1
			{
				OFFSET 0.000000 1.950000 0.060000
				CHANNELS 3 Zrotation Yrotation Xrotation
				JOINT Neck
				{
					OFFSET 0.000000 0.000000 0.000000
					CHANNELS 3 Zrotation Yrotation Xrotation
					JOINT Neck1
					{
						OFFSET 0.000000 1.600000 0.340000
						CHANNELS 3 Zrotation Yrotation Xrotation
						JOINT Head
						{
							OFFSET 0.000000 1.667000 -0.240000
							CHANNELS 3 Zrotation Yrotation Xrotation
							End Site
							{
								OFFSET 0.000000 0.000000 0.000000
							}
						}
					}
				}
				JOINT LeftShoulder
				{
					OFFSET 0.000000 0.000000 0.000000
					CHANNELS 3 Zrotation Yrotation Xrotation
					JOINT LeftArm
					{
						OFFSET 2.700000 1.550000 -0.730000
						CHANNELS 3 Zrotation Yrotation Xrotation
						JOINT LeftForeArm
						{
							OFFSET 5.450000 0.000000 0.000000
							CHANNELS 3 Zrotation Yrotation Xrotation
							JOINT LeftHand
							{
								OFFSET 3.450000 0.000000 0.000000
								CHANNELS 3 Zrotation Yrotation Xrotation
								JOINT LeftHandIndex1
								{
									OFFSET 0.750000 0.000000 0.000000
									CHANNELS 3 Zrotation Yrotation Xrotation
									End Site
									{
										OFFSET 0.000000 0.000000 0.000000
									}
								}
							}
						}
					}
				}
				JOINT RightShoulder
				{
					OFFSET 0.000000 0.000000 0.000000
					CHANNELS 3 Zrotation Yrotation Xrotation
					JOINT RightArm
					{
						OFFSET -2.700000 1.550000 -0.730000
						CHANNELS 3 Zrotation Yrotation Xrotation
						JOINT RightForeArm
						{
							OFFSET -5.450000 0.000000 0.000000
							CHANNELS 3 Zrotation Yrotation Xrotation
							JOINT RightHand
							{
								OFFSET -3.450000 0.000000 0.000000
								CHANNELS 3 Zrotation Yrotation Xrotation
								JOINT RightHandIndex1
								{
									OFFSET -0.750000 0.000000 0.000000
									CHANNELS 3 Zrotation Yrotation Xrotation
									End Site
									{
										OFFSET 0.000000 0.000000 0.000000
									}
								}
							}
						}
					}
				}
			}
		}
	}
}
MOTION
Frames: 9
Frame Time: 0.016667
20.370870 17.645640 -14.344400 -117.488540 -86.293862 120.566477 -15.654503 10.707742 6.808679 -4.687937 -4.357756 19.167389 49.936377 19.346744 -47.931252 -2.109408 13.792385 1.748857 -1.895590 -2.597160 1.641860 18.043014 -10.069471 2.803101 -4.012050 9.738214 -29.359189 -17.547183 1.084535 34.327709 1.129499 -10.071244 0.608787 0.980430 4.290860 3.383200 -1.054608 -2.039807 -9.729442 -2.712853 3.801737 0.503567 4.682844 6.178292 -24.513811 8.725151 21.426606 -15.525879 49.034851 -25.346557 -1.844494 -42.925230 4.370500 17.898100 -45.759934 -15.532353 4.932934 15.296551 17.020703 14.608702 -6.727662 -2.748544 -3.469666 -13.640735 1.691441 -2.908640 7.327500 -3.057260 -1.231880 31.637050 5.155378 0.883687 -15.858263 -8.796584 14.341111 -0.759145 26.206024 -7.082450 -2.242439 -5.217542 -1.940490 -0.295070 1.530200 -1.984870 
20.303870 17.650890 -14.365100 -108.742650 -86.529387 113.313549 -15.766478 10.667803 6.994103 -4.551769 -4.266683 19.414687 45.218455 18.636910 -52.182393 -2.206136 13.567766 1.833300 -1.936590 -2.686030 1.673730 17.854478 -10.351733 2.741735 -5.077604 8.678981 -28.859833 -14.534847 -0.377791 31.156278 1.290561 -9.483455 0.822058 0.928870 4.270240 3.333490 -1.178639 -1.126805 -9.835116 -3.422284 3.715606 -2.594815 5.316629 5.150560 -24.244757 8.861493 21.489001 -15.326838 49.217563 -26.555008 -2.074883 -43.583840 3.806810 18.609490 -46.055093 -15.505849 4.866828 15.411010 17.483342 14.607386 -6.865192 -2.903198 -3.409491 -13.598015 1.735032 -2.854520 7.295550 -3.082180 -1.272660 31.786048 4.671567 1.107396 -16.156823 -9.496886 14.137688 -2.267589 24.208784 -7.434521 -2.219281 -5.230681 -1.991520 -0.302060 1.533220 -2.020780 
20.145010 17.650700 -14.415880 -75.075379 -86.899639 83.855414 -15.997947 10.448756 7.099239 -3.085785 -4.579007 18.723256 33.064842 14.571965 -60.374702 -2.289960 13.107273 2.103681 -2.165760 -3.038640 1.728370 17.618620 -10.423406 2.463640 -7.838682 6.623442 -27.311675 -7.167502 -3.240066 22.914445 1.531041 -8.590491 1.000862 0.719550 4.374840 3.495430 -1.572249 1.108911 -9.618052 -7.706318 3.712410 -10.218554 8.840242 1.070007 -23.043531 9.843195 21.262816 -14.187398 49.858443 -28.616658 -4.005478 -44.625340 3.491440 20.246350 -47.502345 -16.144829 5.163488 15.876837 18.804895 14.777832 -7.252869 -3.315159 -3.191220 -13.674275 2.350329 -2.886730 7.403030 -3.118760 -1.361820 31.384217 3.942504 1.446657 -15.098327 -11.600955 14.156912 -1.482556 27.265161 -7.322803 -2.239685 -5.592852 -2.025500 -0.488620 1.558320 -2.013970 
20.041380 17.707720 -14.476410 -64.883825 -84.156259 75.931088 -16.190874 10.059891 7.264644 3.434776 -4.642524 18.070932 17.720868 7.995524 -65.707647 -2.704290 12.758745 2.038798 -1.808900 -2.358890 1.957660 17.532054 -10.028194 2.527368 -5.708440 7.330682 -26.855980 -3.580863 -3.879105 21.719348 1.496601 -8.661523 0.817074 1.283660 4.300370 3.638830 -1.344651 1.065413 -9.758417 -7.886540 3.374789 -12.611699 11.109881 -0.294675 -22.272373 11.173096 21.090842 -13.944745 49.457853 -26.979554 -4.803111 -44.337430 2.195250 18.659320 -49.090960 -16.684838 4.541815 16.880945 19.400879 16.220556 -8.478526 -6.316691 -2.711920 -14.102206 2.768641 -3.257200 7.680960 -3.037310 -1.364670 30.805092 4.100544 2.014508 -13.344309 -14.912849 16.249642 -2.437160 36.029624 -8.207996 -2.591340 -6.094119 -1.890260 -0.426790 1.456620 -2.029040 
19.972560 17.716420 -14.525420 -47.961895 -79.895809 62.013480 -16.680485 9.100245 7.806468 13.372464 -6.133656 14.781443 -0.838747 -1.420949 -66.685144 -2.922027 13.008980 1.829685 -1.578280 -1.937060 2.156800 17.245447 -9.326991 2.316150 -5.194693 6.934521 -24.462772 4.191889 -5.347852 14.525581 1.477201 -8.546631 0.675383 1.665100 4.239140 3.764960 -1.268391 -0.111265 -10.038858 -7.717894 1.934117 -13.725726 13.676003 -1.752369 -21.450675 12.406961 20.976329 -13.923022 49.409301 -26.538500 -6.746210 -44.476190 1.347450 17.781350 -50.725374 -17.989076 4.418379 17.581915 19.969265 17.354256 -9.484994 -9.147726 -2.209786 -14.454617 3.300750 -3.443130 7.859480 -2.952150 -1.393020 29.851161 5.106320 3.474240 -10.194130 -19.613090 17.275046 -6.006366 42.628669 -10.087685 -2.739947 -6.249019 -1.837930 -0.390920 1.409940 -2.069860 
19.922980 17.779800 -14.574860 -44.776522 -75.899262 60.427261 -17.178954 8.000138 8.620143 26.039901 -6.212704 9.402882 -25.309609 -9.613150 -56.538572 -3.075822 13.994074 1.169236 -1.203440 -1.300640 2.522550 16.889778 -8.555334 2.365507 -5.322100 6.506246 -21.695094 14.251286 -6.210561 5.879499 1.280163 -8.900915 0.293166 2.167480 3.961700 3.827170 -1.031976 -1.180247 -10.508590 -7.111793 0.788567 -13.682678 16.164968 -1.711994 -19.885463 13.946540 21.236159 -14.954215 49.603616 -27.566446 -8.720146 -45.496280 -0.178260 16.913160 -52.411526 -19.662017 4.258359 18.576250 20.846519 18.725750 -11.006081 -12.442327 -1.538830 -14.728034 3.688137 -3.534950 7.937500 -2.740170 -1.495660 27.935840 6.894066 5.338057 -1.897826 -27.463329 16.101603 -16.380663 57.803341 -16.786098 -2.904621 -6.129819 -1.772530 -0.342130 1.323120 -2.199310 
19.903650 17.760360 -14.673130 -37.573503 -73.497689 54.580563 -17.466937 7.555024 8.628309 37.572364 -4.107608 0.425038 -52.755982 -8.346241 -35.589730 -3.873114 14.635094 0.106955 -0.621670 -0.381430 3.092620 16.740644 -7.747235 2.476501 -7.432524 4.887864 -17.549933 23.563194 -6.021550 -3.293349 0.732192 -9.414393 -0.303419 2.820350 3.253920 3.724490 -1.267758 -1.980366 -10.742552 -9.767177 0.170455 -13.008053 19.321706 -2.123382 -16.080116 15.497688 21.089611 -17.219377 49.561148 -28.308421 -10.913106 -47.638110 -1.029980 14.290070 -52.630603 -22.906844 5.055917 18.919182 21.814255 19.373425 -12.235525 -16.834575 -0.863392 -14.615081 3.813426 -3.070450 7.689520 -2.174690 -1.753210 22.839013 12.609057 8.119829 19.004272 -32.307531 6.108522 -38.189379 74.342340 -36.849649 -3.601864 -4.959463 -1.805330 -0.135080 1.301240 -2.577970 
19.959310 17.685980 -14.837600 -32.495813 -72.699349 49.496376 -17.437376 7.867720 7.571672 44.315095 -1.010395 -9.315875 -69.431859 4.289934 -14.993596 -4.050150 15.623191 -0.692602 -0.362130 0.008900 3.246650 16.889404 -6.942014 2.910725 -10.019038 2.987358 -12.874768 32.141087 -4.185521 -13.376555 0.306892 -10.064148 -0.569424 3.042580 2.928580 3.532510 -1.603311 -2.398157 -10.580378 -13.665300 2.015503 -10.984406 21.505897 -3.716867 -7.281089 16.627566 19.764784 -22.946497 48.378976 -26.329301 -11.549972 -47.427550 0.853150 11.478380 -50.015435 -28.226953 6.670721 18.134389 22.102480 17.148183 -12.654914 -21.408419 -0.206334 -14.115803 4.201325 -2.695050 7.427640 -1.910140 -1.801760 14.228446 22.628324 13.611238 50.835233 -19.409074 -4.467149 -80.464017 65.892528 -67.653113 -3.697070 -3.300739 -1.874960 0.049610 1.277680 -2.736070 
20.036960 17.622550 -15.057200 -31.991230 -72.824034 47.755630 -17.257732 8.154258 6.645343 47.919957 2.195978 -15.690408 -75.421951 17.479804 -1.346194 -3.738447 16.421355 -1.177830 -0.257490 0.049230 3.181010 17.157525 -6.404035 3.446501 -12.008023 2.082060 -8.789712 39.974311 -1.589130 -20.429484 -0.125861 -10.202629 -0.487990 2.826450 2.544850 3.288650 -1.636641 -2.268826 -10.301748 -14.887126 4.818329 -9.263332 20.293529 -4.533142 -1.503450 18.296801 18.305132 -26.455083 48.188265 -24.394703 -11.540750 -47.762740 3.331190 9.043370 -46.626747 -30.970290 8.949217 17.155120 22.957862 14.449877 -13.571561 -25.821692 0.166460 -13.025970 4.656880 -2.138850 6.859460 -1.618230 -1.769310 5.737787 30.821676 12.711964 69.616377 6.058286 -1.934169 -74.559899 50.331576 -56.684989 -3.341043 -4.204433 -1.825630 0.121160 1.277470 -2.795100 
